{
	"asset":{
		"version":"2.0",
		"generator":"Maxon Cinema 4D 2023.2.0 (#200000219)"
	},
	"scenes":[{
		"nodes":[0]
	}],
	"bufferViews":[{
		"buffer":0,
		"byteOffset":0,
		"byteLength":77982,
		"target":34963
	},
	{
		"buffer":0,
		"byteOffset":77984,
		"byteLength":235168,
		"target":34962,
		"byteStride":32
	}],
	"nodes":[{
		"name":"Default",
		"mesh":0,
		"translation":[-2.7098631858825685,
		0.7373337149620056,
		-0.222013458609581],
		"rotation":[0.012138164602220059,
		0.9586490988731384,
		0.024725424125790597,
		-0.2832546532154083],
		"scale":[1.0,
		1.0,
		1.0]
	}],
	"meshes":[{
		"name":"Default",
		"primitives":[{
			"attributes":{
				"POSITION":1,
				"NORMAL":2,
				"TEXCOORD_0":3
			},
			"indices":0,
			"material":0
		}]
	}],
	"accessors":[{
		"bufferView":0,
		"componentType":5123,
		"type":"SCALAR",
		"byteOffset":0,
		"count":38991,
		"min":[0],
		"max":[7348]
	},
	{
		"bufferView":1,
		"componentType":5126,
		"type":"VEC3",
		"byteOffset":0,
		"count":7349,
		"min":[-0.3132011592388153,
		-0.0928163081407547,
		-0.5551978945732117],
		"max":[0.12605656683444978,
		0.3827041685581207,
		0.11135262250900269]
	},
	{
		"bufferView":1,
		"componentType":5126,
		"type":"VEC3",
		"byteOffset":12,
		"count":7349,
		"min":[-1.0,
		-0.9997889995574951,
		-0.9999983310699463],
		"max":[1.0,
		0.9998317956924439,
		0.9998806118965149]
	},
	{
		"bufferView":1,
		"componentType":5126,
		"type":"VEC2",
		"byteOffset":24,
		"count":7349,
		"min":[0.008905739523470402,
		-0.321094274520874],
		"max":[0.9822120070457459,
		0.6610941886901856]
	}],
	"buffers":[{
		"uri":"data:application/octet-stream;base64,",
		"byteLength":313152
	}],
	"materials":[{
		"pbrMetallicRoughness":{
			"baseColorFactor":[1.0,
			1.0,
			1.0,
			1.0],
			"metallicFactor":1.0,
			"roughnessFactor":1.0
		},
		"emissiveFactor":[0.0,
		0.0,
		0.0],
		"alphaMode":"OPAQUE",
		"doubleSided":false,
		"name":""
	}]
}